# xmcd CD database file
# Copyright (C) 1995-1998 Ti Kan
#
# Track frame offsets:
#	150
#	13570
#	29677
#	44755
#	59662
#	75917
#	88905
#	103810
#	117020
#	136312
#
# Disc length: 2013 seconds
#
# Revision: 1
# Processed by: cddbd v1.4b41PL1 Copyright (c) Steve Scherf et al.
# Submitted via: CDex 1.30
#
DISCID=8507db0a
DTITLE=Don Williams - The Best of Don Williams
DYEAR=1990
DGENRE=Country
TTITLE0=Lord Have Mercy On A Country Boy
TTITLE1=Ive Been loved By The Best
TTITLE2=Just As Long As I Have You
TTITLE3=In The Family
TTITLE4=Standing Knee Deep In A River Of Thirst
TTITLE5=True Love
TTITLE6=Its Who You Love
TTITLE7=One Good Well
TTITLE8=Maybe Thats All It Takes
TTITLE9=Back In My Younger Days
EXTD=YEAR: 1990  ID3G:   2
EXTT0=
EXTT1=
EXTT2=
EXTT3=
EXTT4=
EXTT5=
EXTT6=
EXTT7=
EXTT8=
EXTT9=
PLAYORDER=
